# xmcd
# Track frame offsets:
# 150
# 21970
# 33171
# 49115
# 60222
# 80423
# 106447
# 116223
# 130617
# 143235
# 157790
#
# Disc length: 2230 seconds
# Revision: 0
# Processed by: cddbd v1.4PL0 Copyright (c) Steve Scherf et al.
# Submitted via: VisiTrax 2.9.5.181 - For more info visit www.synapsa.com
#
DISCID=8408b40b
DTITLE=Eric´s Bluesband - Take One
DYEAR=1900
DGENRE=Blues
TTITLE0=I need a change
TTITLE1=Peace is not a word
TTITLE2=I´m worried
TTITLE3=I´m worried
TTITLE4=Looking out my window
TTITLE5=Have you ever loved a women
TTITLE6=Eric´s boogie
TTITLE7=Please tell me you feel free
TTITLE8=Please love me
TTITLE9=Why didn´t we even try
TTITLE10=Tell me
EXTD=
EXTT0=
EXTT1=
EXTT2=
EXTT3=
EXTT4=
EXTT5=
EXTT6=
EXTT7=
EXTT8=
EXTT9=
EXTT10=
PLAYORDER=
